<?xml version="1.0" encoding="UTF-8"?>
<svg width="240px" height="240px" viewBox="0 0 240 240" version="1.1" xmlns="http://www.w3.org/2000/svg" xmlns:xlink="http://www.w3.org/1999/xlink">
    <!-- Generator: Sketch 45.2 (43514) - http://www.bohemiancoding.com/sketch -->
    <title>Artboard 2</title>
    <desc>Created with Sketch.</desc>
    <defs></defs>
    <g id="V1" stroke="none" stroke-width="1" fill="none" fill-rule="evenodd">
        <g id="Artboard-2">
            <g id="Group" transform="translate(1.000000, 1.000000)">
                <circle id="Oval" fill="#DBD9DB" cx="119" cy="119" r="119"></circle>
                <path d="M45,212.928981 L45,188.998008 L45,188.998008 C45,161.383771 67.3857625,138.998008 95,138.998008 L95,138.998008 L100,138.998008 L100,136.724412 C89.2291889,130.377751 82.001992,118.659506 82.001992,105.253258 L82.001992,85.5023122 L82.001992,85.5023122 C82.001992,65.3426418 98.3446338,49 118.504304,49 C138.663975,49 155.006616,65.3426418 155.006616,85.5023122 L155.006616,105.253258 C155.006616,118.76561 147.664567,130.563134 136.752207,136.874092 L136.752207,138.998008 L142.008828,138.998008 L142.008828,138.998008 C169.623066,138.998008 192.008828,161.383771 192.008828,188.998008 L192.008828,212.653767 C171.807612,228.789262 146.196061,238.435658 118.331474,238.435658 C90.6256752,238.435658 65.1473077,228.89889 45,212.928981 Z" id="Combined-Shape" fill="#ADACAD"></path>
            </g>
        </g>
    </g>
</svg>